<!DOCTYPE svg PUBLIC "-//W3C//DTD SVG 20010904//EN" "http://www.w3.org/TR/2001/REC-SVG-20010904/DTD/svg10.dtd">
<svg version="1.0" xmlns="http://www.w3.org/2000/svg" width="1176px" height="252px" viewBox="0 0 11760 2520" preserveAspectRatio="xMidYMid meet">
<g id="layer101" fill="#1a2949" stroke="none">
<path d="M2020 1510 l0 -720 140 0 140 0 0 85 c0 50 4 85 10 85 6 0 10 -4 10 -9 0 -20 91 -108 137 -133 179 -96 422 -38 531 127 158 239 126 671 -63 843 -81 74 -144 96 -275 96 -85 0 -116 -4 -161 -22 -56 -22 -114 -70 -156 -127 l-22 -30 0 263 -1 262 -145 0 -145 0 0 -720z m623 116 c91 -38 140 -139 141 -291 1 -203 -82 -315 -234 -315 -142 0 -227 101 -238 282 -9 156 39 272 129 316 52 26 151 30 202 8z"/>
<path d="M3478 1871 c-194 -64 -282 -272 -191 -450 67 -131 193 -179 516 -196 l127 -7 0 -55 c0 -119 -62 -169 -199 -161 -87 5 -139 29 -159 73 -12 25 -12 25 -148 25 l-136 0 7 -37 c34 -181 215 -295 470 -296 168 0 287 43 368 133 81 90 81 89 85 558 l3 412 -145 0 -146 0 0 -70 0 -69 -45 48 c-66 71 -144 103 -260 108 -69 2 -103 -1 -147 -16z m340 -230 c77 -40 112 -99 112 -190 l0 -44 -127 7 c-154 8 -197 19 -235 56 -37 37 -40 105 -5 145 48 56 172 69 255 26z"/>
<path d="M10528 1871 c-75 -24 -116 -51 -171 -110 -95 -102 -138 -235 -138 -431 0 -210 50 -351 162 -455 82 -76 146 -99 274 -99 89 -1 107 2 162 28 58 26 127 87 160 142 9 15 12 -43 12 -273 l1 -293 150 0 150 0 0 745 0 745 -145 0 -145 0 0 -82 0 -82 -50 57 c-75 83 -153 119 -273 124 -71 2 -105 -1 -149 -16z m330 -250 c46 -23 73 -53 103 -111 22 -41 24 -58 24 -176 0 -125 -1 -133 -30 -189 -20 -40 -45 -69 -73 -90 -40 -28 -50 -30 -127 -30 -77 0 -87 2 -127 30 -28 21 -53 50 -73 90 -29 56 -30 64 -30 184 0 110 3 132 23 177 25 55 59 92 107 117 44 23 156 22 203 -2z"/>
<path d="M4794 1866 c-82 -19 -137 -48 -169 -90 -50 -66 -55 -103 -55 -438 l0 -308 -85 0 -85 0 0 -115 0 -115 85 0 85 0 0 -135 0 -135 145 0 145 0 0 135 0 134 113 3 112 3 0 110 0 110 -112 3 -113 3 0 255 c0 337 3 345 144 354 l81 5 3 104 c1 57 -2 109 -7 114 -16 16 -220 18 -287 3z"/>
<path d="M5320 1125 l0 -745 145 0 145 0 2 291 3 292 33 -51 c64 -99 175 -147 321 -140 138 7 238 63 294 167 51 92 57 151 57 559 l0 372 -150 0 -150 0 0 -353 c0 -346 0 -354 -22 -397 -41 -81 -127 -114 -228 -90 -61 15 -103 47 -133 104 -21 40 -22 52 -25 389 l-3 347 -144 0 -145 0 0 -745z"/>
<path d="M6590 1330 l0 -540 140 0 140 0 0 85 c0 50 4 85 10 85 6 0 10 -6 10 -12 0 -7 16 -34 35 -60 127 -174 438 -158 536 26 13 26 26 46 29 46 3 -1 20 -22 39 -48 71 -98 167 -145 296 -144 135 0 242 56 300 157 48 82 55 147 55 563 l0 382 -150 0 -150 0 0 -368 c0 -338 -1 -370 -19 -402 -28 -52 -62 -73 -129 -78 -80 -6 -140 21 -179 79 l-28 42 -3 364 -3 363 -140 0 -139 0 0 -362 c0 -345 -1 -364 -21 -404 -55 -114 -239 -111 -307 4 l-27 47 -3 358 -3 357 -144 0 -145 0 0 -540z"/>
<path d="M8440 1330 l0 -540 145 0 145 0 0 540 0 540 -145 0 -145 0 0 -540z"/>
<path d="M9020 1330 l0 -540 140 0 140 0 0 85 c0 50 4 85 10 85 6 0 10 -7 10 -16 0 -9 28 -44 63 -78 76 -76 139 -100 262 -99 114 2 184 29 255 102 44 44 61 71 80 126 24 69 24 76 28 473 l3 402 -150 0 -150 0 -3 -367 -3 -368 -24 -39 c-31 -49 -87 -75 -162 -76 -77 0 -135 31 -174 95 l-30 48 -3 354 -3 353 -145 0 -144 0 0 -540z"/>
<path d="M8535 625 c-76 -27 -125 -112 -110 -191 10 -57 77 -120 137 -129 96 -15 178 51 186 151 10 120 -103 209 -213 169z"/>
</g>
<g id="layer102" fill="#ed7820" stroke="none">
<path d="M510 1660 l0 -180 165 0 165 0 0 -180 0 -180 -170 0 -170 0 0 -180 0 -180 175 0 175 0 0 180 0 180 170 0 170 0 0 180 0 180 170 0 170 0 0 180 0 180 -170 0 -170 0 -2 -177 -3 -178 -167 -3 -168 -2 0 180 0 180 -170 0 -170 0 0 -180z"/>
</g>


</svg>