<svg width="110" height="110" viewBox="0 0 110 110" fill="none" xmlns="http://www.w3.org/2000/svg">
<rect width="110" height="110"/>
<path fill-rule="evenodd" clip-rule="evenodd" d="M55 107C83.7188 107 107 83.7188 107 55C107 26.2812 83.7188 3 55 3C26.2812 3 3 26.2812 3 55C3 83.7188 26.2812 107 55 107ZM55 110C85.3757 110 110 85.3757 110 55C110 24.6243 85.3757 0 55 0C24.6243 0 0 24.6243 0 55C0 85.3757 24.6243 110 55 110Z" fill="#3A966B"/>
<path fill-rule="evenodd" clip-rule="evenodd" d="M105 55C105 82.6142 82.6142 105 55 105C27.3858 105 5 82.6142 5 55C5 27.3858 27.3858 5 55 5C82.6142 5 105 27.3858 105 55ZM34.6494 83.5479L32.6807 83.7393C32.8128 84.8604 33.2184 85.7148 33.8975 86.3027C34.5765 86.8861 35.5495 87.1777 36.8164 87.1777C37.6868 87.1777 38.4137 87.057 38.9971 86.8154C39.5804 86.5693 40.0316 86.1956 40.3506 85.6943C40.6696 85.193 40.8291 84.6553 40.8291 84.0811C40.8291 83.4476 40.6947 82.9167 40.4258 82.4883C40.1615 82.0553 39.7923 81.7158 39.3184 81.4697C38.849 81.2191 38.1221 80.9775 37.1377 80.7451C36.1533 80.5127 35.5335 80.2894 35.2783 80.0752C35.0778 79.9066 34.9775 79.7038 34.9775 79.4668C34.9775 79.207 35.0846 78.9997 35.2988 78.8447C35.6315 78.6032 36.0918 78.4824 36.6797 78.4824C37.2493 78.4824 37.6755 78.5964 37.958 78.8242C38.2451 79.0475 38.432 79.4167 38.5186 79.9316L40.542 79.8428C40.5101 78.9222 40.1751 78.1862 39.5371 77.6348C38.9036 77.0833 37.958 76.8076 36.7002 76.8076C35.93 76.8076 35.2715 76.9238 34.7246 77.1562C34.1823 77.3887 33.7653 77.7282 33.4736 78.1748C33.1865 78.6169 33.043 79.0931 33.043 79.6035C33.043 80.3965 33.3506 81.0687 33.9658 81.6201C34.4033 82.012 35.1644 82.3424 36.249 82.6113C37.0921 82.821 37.6322 82.9668 37.8691 83.0488C38.2155 83.1719 38.457 83.3177 38.5938 83.4863C38.735 83.6504 38.8057 83.8509 38.8057 84.0879C38.8057 84.457 38.6393 84.7806 38.3066 85.0586C37.9785 85.332 37.4886 85.4688 36.8369 85.4688C36.2217 85.4688 35.7318 85.3138 35.3672 85.0039C35.0072 84.694 34.7679 84.2087 34.6494 83.5479ZM44.7871 78.6738V87H46.8105V78.6738H49.7773V76.9785H41.8135V78.6738H44.7871ZM59.0879 87H56.8867L56.0117 84.7236H52.0059L51.1787 87H49.0322L52.9355 76.9785H55.0752L59.0879 87ZM55.3623 83.0352L53.9814 79.3164L52.6279 83.0352H55.3623ZM60.1748 76.9785V87H62.1982V82.8164H62.6084C63.0732 82.8164 63.4128 82.8551 63.627 82.9326C63.8411 83.0055 64.0439 83.1445 64.2354 83.3496C64.4268 83.5501 64.7822 84.04 65.3018 84.8193L66.7646 87H69.1846L67.9609 85.0449C67.4779 84.2656 67.0928 83.7233 66.8057 83.418C66.5231 83.1126 66.1631 82.8324 65.7256 82.5771C66.6051 82.4495 67.2659 82.1419 67.708 81.6543C68.1501 81.1621 68.3711 80.54 68.3711 79.7881C68.3711 79.1956 68.2253 78.6693 67.9336 78.209C67.6419 77.7487 67.2523 77.4297 66.7646 77.252C66.2816 77.0697 65.5046 76.9785 64.4336 76.9785H60.1748ZM63.6953 81.2168H62.1982V78.6738H63.7773C64.5977 78.6738 65.0898 78.6852 65.2539 78.708C65.582 78.7627 65.835 78.8949 66.0127 79.1045C66.195 79.3096 66.2861 79.5807 66.2861 79.918C66.2861 80.2188 66.2178 80.4694 66.0811 80.6699C65.9443 80.8704 65.7552 81.0117 65.5137 81.0938C65.2721 81.1758 64.666 81.2168 63.6953 81.2168ZM72.541 87V78.6738H69.5674V76.9785H77.5312V78.6738H74.5645V87H72.541ZM43 32V62L73 47.5L43 32Z" fill="#3A966B"/>
</svg>
