<svg width="110" height="110" viewBox="0 0 110 110" fill="none" xmlns="http://www.w3.org/2000/svg">
<rect width="110" height="110"/>
<path fill-rule="evenodd" clip-rule="evenodd" d="M55 107C83.7188 107 107 83.7188 107 55C107 26.2812 83.7188 3 55 3C26.2812 3 3 26.2812 3 55C3 83.7188 26.2812 107 55 107ZM55 110C85.3757 110 110 85.3757 110 55C110 24.6243 85.3757 0 55 0C24.6243 0 0 24.6243 0 55C0 85.3757 24.6243 110 55 110Z" fill="#D80947"/>
<path fill-rule="evenodd" clip-rule="evenodd" d="M105 55C105 82.6142 82.6142 105 55 105C27.3858 105 5 82.6142 5 55C5 27.3858 27.3858 5 55 5C82.6142 5 105 27.3858 105 55ZM36.5703 83.7393L38.5391 83.5479C38.6576 84.2087 38.8968 84.694 39.2568 85.0039C39.6214 85.3138 40.1113 85.4688 40.7266 85.4688C41.3783 85.4688 41.8682 85.332 42.1963 85.0586C42.529 84.7806 42.6953 84.457 42.6953 84.0879C42.6953 83.8509 42.6247 83.6504 42.4834 83.4863C42.3467 83.3177 42.1051 83.1719 41.7588 83.0488C41.5218 82.9668 40.9818 82.821 40.1387 82.6113C39.054 82.3424 38.293 82.012 37.8555 81.6201C37.2402 81.0687 36.9326 80.3965 36.9326 79.6035C36.9326 79.0931 37.0762 78.6169 37.3633 78.1748C37.6549 77.7282 38.0719 77.3887 38.6143 77.1562C39.1611 76.9238 39.8197 76.8076 40.5898 76.8076C41.8477 76.8076 42.7933 77.0833 43.4268 77.6348C44.0648 78.1862 44.3997 78.9222 44.4316 79.8428L42.4082 79.9316C42.3216 79.4167 42.1348 79.0475 41.8477 78.8242C41.5651 78.5964 41.139 78.4824 40.5693 78.4824C39.9814 78.4824 39.5212 78.6032 39.1885 78.8447C38.9743 78.9997 38.8672 79.207 38.8672 79.4668C38.8672 79.7038 38.9674 79.9066 39.168 80.0752C39.4232 80.2894 40.043 80.5127 41.0273 80.7451C42.0117 80.9775 42.7386 81.2191 43.208 81.4697C43.682 81.7158 44.0511 82.0553 44.3154 82.4883C44.5843 82.9167 44.7188 83.4476 44.7188 84.0811C44.7188 84.6553 44.5592 85.193 44.2402 85.6943C43.9212 86.1956 43.4701 86.5693 42.8867 86.8154C42.3034 87.057 41.5765 87.1777 40.7061 87.1777C39.4391 87.1777 38.4661 86.8861 37.7871 86.3027C37.1081 85.7148 36.7025 84.8604 36.5703 83.7393ZM48.6768 87V78.6738H45.7031V76.9785H53.667V78.6738H50.7002V87H48.6768ZM54.7676 79.4805C54.4622 80.1732 54.3096 81.0299 54.3096 82.0508C54.3096 83.6458 54.7493 84.8991 55.6289 85.8105C56.5085 86.7174 57.6934 87.1709 59.1836 87.1709C60.6556 87.1709 61.8314 86.7152 62.7109 85.8037C63.5905 84.8877 64.0303 83.6208 64.0303 82.0029C64.0303 80.3714 63.5859 79.0977 62.6973 78.1816C61.8132 77.2656 60.6328 76.8076 59.1562 76.8076C58.3405 76.8076 57.6204 76.9398 56.9961 77.2041C56.5267 77.4001 56.0938 77.7008 55.6973 78.1064C55.3053 78.512 54.9954 78.9701 54.7676 79.4805ZM57.1807 84.5664C56.6566 83.9785 56.3945 83.1172 56.3945 81.9824C56.3945 80.8294 56.6497 79.9681 57.1602 79.3984C57.6706 78.8242 58.3428 78.5371 59.1768 78.5371C60.0107 78.5371 60.6784 78.8197 61.1797 79.3848C61.6855 79.9499 61.9385 80.8066 61.9385 81.9551C61.9385 83.1172 61.6787 83.9899 61.1592 84.5732C60.6442 85.152 59.9834 85.4414 59.1768 85.4414C58.3701 85.4414 57.7048 85.1497 57.1807 84.5664ZM65.6162 87V76.9785H68.8633C70.0938 76.9785 70.8958 77.0286 71.2695 77.1289C71.8438 77.2793 72.3245 77.6074 72.7119 78.1133C73.0993 78.6146 73.293 79.264 73.293 80.0615C73.293 80.6768 73.1813 81.194 72.958 81.6133C72.7347 82.0326 72.4499 82.363 72.1035 82.6045C71.7617 82.8415 71.4131 82.9987 71.0576 83.0762C70.5745 83.1719 69.875 83.2197 68.959 83.2197H67.6396V87H65.6162ZM67.6396 78.6738V81.5176H68.7471C69.5446 81.5176 70.0778 81.4652 70.3467 81.3604C70.6156 81.2555 70.8252 81.0915 70.9756 80.8682C71.1305 80.6449 71.208 80.3851 71.208 80.0889C71.208 79.7243 71.1009 79.4235 70.8867 79.1865C70.6725 78.9495 70.4014 78.8014 70.0732 78.7422C69.8317 78.6966 69.3464 78.6738 68.6172 78.6738H67.6396ZM69 34H43V60H69V34Z" fill="#D80947"/>
</svg>
